# xmcd CD database file
#
# Track frame offsets:
#	183
#	14083
#	20553
#	31028
#	54190
#	57400
#	62258
#	66545
#	78503
#	85200
#	90978
#	97438
#	118458
#	135493
#	136825
#	141015
#	150705
#	164245
#	180293
#	190365
#	216360
#	226408
#
# Disc length: 3549 seconds
#
# Revision: 0
# Processed by: cddbd v1.5.1PL2 Copyright (c) Steve Scherf et al.
# Submitted via: CDex 1.51
#
DISCID=3a0ddb16
DTITLE=Minnesota Orchestra - de Waart - Strauss Serenade in Eb for 13 wind instruments Op.7
DYEAR=1989
DGENRE=Wind
TTITLE0=Eine Alpensinfonie -I- Night
TTITLE1=Eine Alpensinfonie -II- Sunrise
TTITLE2=Eine Alpensinfonie -III- The Ascent
TTITLE3=Eine Alpensinfonie -IV- Entry into the Wood
TTITLE4=Eine Alpensinfonie -V- Wandering by the Stream
TTITLE5=Eine Alpensinfonie -VI- By the Waterfall
TTITLE6=Eine Alpensinfonie -VII- Flowering Meadows
TTITLE7=Eine Alpensinfonie -VIII- Alpine Pasture
TTITLE8=Eine Alpensinfonie -IX- In Thicket and Undergrowth on the Wrong Path
TTITLE9=Eine Alpensinfonie -X- On the Glacier
TTITLE10=Eine Alpensinfonie -XI- Dangerous Moments
TTITLE11=Eine Alpensinfonie -XII- Summit
TTITLE12=Eine Alpensinfonie -XIII- Vision
TTITLE13=Eine Alpensinfonie -XIV- Mists rise
TTITLE14=Eine Alpensinfonie -XV- The Sun is gradually obscured
TTITLE15=Eine Alpensinfonie -XVI- Elegy
TTITLE16=Eine Alpensinfonie -XVII- Calm before the Storm
TTITLE17=Eine Alpensinfonie -XVIII- Storm and Descent
TTITLE18=Eine Alpensinfonie -XIX- Sunset
TTITLE19=Eine Alpensinfonie -XX- Waning Tones
TTITLE20=Eine Alpensinfonie -XXI- Night
TTITLE21=Serenade in Eb for 13 wind instruments Op.7
EXTD=YEAR: 1989
EXTT0=
EXTT1=
EXTT2=
EXTT3=
EXTT4=
EXTT5=
EXTT6=
EXTT7=
EXTT8=
EXTT9=
EXTT10=
EXTT11=
EXTT12=
EXTT13=
EXTT14=
EXTT15=
EXTT16=
EXTT17=
EXTT18=
EXTT19=
EXTT20=
EXTT21=
PLAYORDER=
